<?xml version="1.0" encoding="UTF-8"?>
<svg width="37px" height="38px" viewBox="0 0 37 38" version="1.1" xmlns="http://www.w3.org/2000/svg" xmlns:xlink="http://www.w3.org/1999/xlink">
    <!-- Generator: Sketch 47.1 (45422) - http://www.bohemiancoding.com/sketch -->
    <title>aurasens-icon-active</title>
    <desc>Created with Sketch.</desc>
    <defs></defs>
    <g id="Symbols" stroke="none" stroke-width="1" fill="none" fill-rule="evenodd">
        <g id="nav-mobile" transform="translate(-20.000000, -13.000000)" stroke="#EBCCC2">
            <g id="aurasens-icon" transform="translate(20.000000, 14.000000)">
                <g id="Aurasens-logo-(new)">
                    <path d="M7.08082564,10.1882414 C7.08082564,9.272766 7.82148783,8.52824621 8.73185047,8.52824621 C9.64221312,8.52824621 10.3826906,9.272766 10.3826906,10.1882414 C10.3826906,11.1033455 9.64221312,11.8478653 8.73185047,11.8478653 C7.82148783,11.8478653 7.08082564,11.1033455 7.08082564,10.1882414 Z M15.012097,10.1882414 C15.012097,11.1033455 14.2714349,11.8478653 13.3610722,11.8478653 C12.4505249,11.8478653 11.7098627,11.1033455 11.7098627,10.1882414 C11.7098627,9.272766 12.4505249,8.52824621 13.3610722,8.52824621 C14.2714349,8.52824621 15.012097,9.272766 15.012097,10.1882414 Z M24.2705959,10.1882414 C24.2705959,11.1033455 23.5297491,11.8478653 22.6195711,11.8478653 C21.7092085,11.8478653 20.9687309,11.1033455 20.9687309,10.1882414 C20.9687309,9.272766 21.7092085,8.52824621 22.6195711,8.52824621 C23.5297491,8.52824621 24.2705959,9.272766 24.2705959,10.1882414 Z M25.5978234,10.1882414 C25.5978234,9.272766 26.3386703,8.52824621 27.2488482,8.52824621 C28.1592109,8.52824621 28.8996884,9.272766 28.8996884,10.1882414 C28.8996884,11.1033455 28.1592109,11.8478653 27.2488482,11.8478653 C26.3386703,11.8478653 25.5978234,11.1033455 25.5978234,10.1882414 Z M30.2272483,10.1882414 C30.2272483,9.272766 30.9677258,8.52824621 31.8779038,8.52824621 C32.7882664,8.52824621 33.5291133,9.272766 33.5291133,10.1882414 C33.5291133,11.1033455 32.7882664,11.8478653 31.8779038,11.8478653 C30.9677258,11.8478653 30.2272483,11.1033455 30.2272483,10.1882414 Z M33.5290948,18.175671 C33.5290948,19.0907751 32.788248,19.8352949 31.87807,19.8352949 C30.9677073,19.8352949 30.2272298,19.0907751 30.2272298,18.175671 C30.2272298,17.2605669 30.9677073,16.5160471 31.87807,16.5160471 C32.788248,16.5160471 33.5290948,17.2605669 33.5290948,18.175671 Z M6.70321904,7.88069403 C5.79267173,7.88069403 5.05182489,7.13635985 5.05182489,6.22144135 C5.05182489,5.305966 5.79267173,4.56126058 6.70321904,4.56126058 C7.61358168,4.56126058 8.35424386,5.305966 8.35424386,6.22144135 C8.35424386,7.13635985 7.61358168,7.88069403 6.70321904,7.88069403 Z M4.03146163,11.8479395 C3.12109899,11.8479395 2.38043681,11.1032341 2.38043681,10.1883156 C2.38043681,9.27284025 3.12109899,8.52813483 4.03146163,8.52813483 C4.94163962,8.52813483 5.68211715,9.27284025 5.68211715,10.1883156 C5.68211715,11.1032341 4.94163962,11.8479395 4.03146163,11.8479395 Z M2.38036294,18.175671 C2.38036294,17.2605669 3.12102513,16.5160471 4.03138777,16.5160471 C4.94175042,16.5160471 5.68222794,17.2605669 5.68222794,18.175671 C5.68222794,19.0907751 4.94175042,19.8352949 4.03138777,19.8352949 C3.12102513,19.8352949 2.38036294,19.0907751 2.38036294,18.175671 Z M11.3326439,7.88069403 C10.4217273,7.88069403 9.68088045,7.13635985 9.68088045,6.22144135 C9.68088045,5.305966 10.4217273,4.56126058 11.3326439,4.56126058 C12.2430065,4.56126058 12.9836687,5.305966 12.9836687,6.22144135 C12.9836687,7.13635985 12.2430065,7.88069403 11.3326439,7.88069403 Z M14.3102499,6.22134854 C14.3102499,5.30587319 15.0512814,4.56135339 15.9620134,4.56135339 C16.872376,4.56135339 17.6128535,5.30587319 17.6128535,6.22134854 C17.6128535,7.13645266 16.872376,7.88060122 15.9620134,7.88060122 C15.0512814,7.88060122 14.3102499,7.13645266 14.3102499,6.22134854 Z M18.9393239,6.22134854 C18.9393239,5.30587319 19.6803554,4.56135339 20.5910874,4.56135339 C21.50145,4.56135339 22.2422969,5.30587319 22.2422969,6.22134854 C22.2422969,7.13645266 21.50145,7.88060122 20.5910874,7.88060122 C19.6803554,7.88060122 18.9393239,7.13645266 18.9393239,6.22134854 Z M23.5691181,6.22134854 C23.5691181,5.30587319 24.309965,4.56135339 25.2205123,4.56135339 C26.1308749,4.56135339 26.8713524,5.30587319 26.8713524,6.22134854 C26.8713524,7.13645266 26.1308749,7.88060122 25.2205123,7.88060122 C24.309965,7.88060122 23.5691181,7.13645266 23.5691181,6.22134854 Z M29.8496417,7.88069403 C28.9387251,7.88069403 28.1978782,7.13635985 28.1978782,6.22144135 C28.1978782,5.305966 28.9387251,4.56126058 29.8496417,4.56126058 C30.7600043,4.56126058 31.5006665,5.305966 31.5006665,6.22144135 C31.5006665,7.13635985 30.7600043,7.88069403 29.8496417,7.88069403 Z M10.3826722,18.175671 C10.3826722,19.0907751 9.64219465,19.8352949 8.73201666,19.8352949 C7.82146936,19.8352949 7.08080718,19.0907751 7.08080718,18.175671 C7.08080718,17.2605669 7.82146936,16.5160471 8.73201666,16.5160471 C9.64219465,16.5160471 10.3826722,17.2605669 10.3826722,18.175671 Z M27.2489221,19.8353878 C26.3385595,19.8353878 25.5978973,19.0906823 25.5978973,18.1757638 C25.5978973,17.2606597 26.3385595,16.5159543 27.2489221,16.5159543 C28.1592848,16.5159543 28.8995776,17.2606597 28.8995776,18.1757638 C28.8995776,19.0906823 28.1592848,19.8353878 27.2489221,19.8353878 Z M6.70321904,15.8688476 C5.79267173,15.8688476 5.05182489,15.1241422 5.05182489,14.2092237 C5.05182489,13.2941196 5.79267173,12.5497854 6.70321904,12.5497854 C7.61358168,12.5497854 8.35424386,13.2941196 8.35424386,14.2092237 C8.35424386,15.1241422 7.61358168,15.8688476 6.70321904,15.8688476 Z M12.9837426,14.2091494 C12.9837426,15.1242536 12.2430804,15.8687734 11.3327178,15.8687734 C10.4218012,15.8687734 9.68076965,15.1242536 9.68076965,14.2091494 C9.68076965,13.2940453 10.4218012,12.5498968 11.3327178,12.5498968 C12.2430804,12.5498968 12.9837426,13.2940453 12.9837426,14.2091494 Z M26.8713155,14.2091494 C26.8713155,15.1242536 26.130838,15.8687734 25.22066,15.8687734 C24.309928,15.8687734 23.5690812,15.1242536 23.5690812,14.2091494 C23.5690812,13.2940453 24.309928,12.5498968 25.22066,12.5498968 C26.130838,12.5498968 26.8713155,13.2940453 26.8713155,14.2091494 Z M29.8496417,15.8688476 C28.9387251,15.8688476 28.1978782,15.1241422 28.1978782,14.2092237 C28.1978782,13.2941196 28.9387251,12.5497854 29.8496417,12.5497854 C30.7600043,12.5497854 31.5006665,13.2941196 31.5006665,14.2092237 C31.5006665,15.1241422 30.7600043,15.8688476 29.8496417,15.8688476 Z M10.3826722,26.1634905 C10.3826722,27.0785946 9.64219465,27.8231144 8.73201666,27.8231144 C7.82146936,27.8231144 7.08080718,27.0785946 7.08080718,26.1634905 C7.08080718,25.2483864 7.82146936,24.5038666 8.73201666,24.5038666 C9.64219465,24.5038666 10.3826722,25.2483864 10.3826722,26.1634905 Z M13.3609984,27.8231887 C12.4506357,27.8231887 11.7099735,27.0784832 11.7099735,26.1635647 C11.7099735,25.2484606 12.4506357,24.5037552 13.3609984,24.5037552 C14.271361,24.5037552 15.0120232,25.2484606 15.0120232,26.1635647 C15.0120232,27.0784832 14.271361,27.8231887 13.3609984,27.8231887 Z M17.9904232,27.8231887 C17.0800606,27.8231887 16.3393984,27.0784832 16.3393984,26.1635647 C16.3393984,25.2484606 17.0800606,24.5037552 17.9904232,24.5037552 C18.9007859,24.5037552 19.6410787,25.2484606 19.6410787,26.1635647 C19.6410787,27.0784832 18.9007859,27.8231887 17.9904232,27.8231887 Z M22.6194972,27.8231887 C21.7091346,27.8231887 20.9688417,27.0784832 20.9688417,26.1635647 C20.9688417,25.2484606 21.7091346,24.5037552 22.6194972,24.5037552 C23.5298599,24.5037552 24.2705221,25.2484606 24.2705221,26.1635647 C24.2705221,27.0784832 23.5298599,27.8231887 22.6194972,27.8231887 Z M28.8996515,26.1634905 C28.8996515,27.0785946 28.159174,27.8231144 27.248996,27.8231144 C26.3386333,27.8231144 25.5977865,27.0785946 25.5977865,26.1634905 C25.5977865,25.2483864 26.3386333,24.5038666 27.248996,24.5038666 C28.159174,24.5038666 28.8996515,25.2483864 28.8996515,26.1634905 Z M31.8779961,24.5037738 C32.7883588,24.5037738 33.529021,25.2484792 33.529021,26.1633977 C33.529021,27.0785018 32.7883588,27.8232072 31.8779961,27.8232072 C30.9676335,27.8232072 30.2273406,27.0785018 30.2273406,26.1633977 C30.2273406,25.2484792 30.9676335,24.5037738 31.8779961,24.5037738 Z M6.70321904,23.8562958 C5.79267173,23.8562958 5.05182489,23.1119617 5.05182489,22.1970432 C5.05182489,21.2815678 5.79267173,20.5368624 6.70321904,20.5368624 C7.61358168,20.5368624 8.35424386,21.2815678 8.35424386,22.1970432 C8.35424386,23.1119617 7.61358168,23.8562958 6.70321904,23.8562958 Z M2.16505202,15.8688476 C1.25487404,15.8688476 0.514396509,15.1241422 0.514396509,14.2092237 C0.514396509,13.2941196 1.25487404,12.5497854 2.16505202,12.5497854 C3.07541467,12.5497854 3.81607685,13.2941196 3.81607685,14.2092237 C3.81607685,15.1241422 3.07541467,15.8688476 2.16505202,15.8688476 Z M3.81615071,22.1969504 C3.81615071,23.1120545 3.07548853,23.856203 2.16512588,23.856203 C1.25476324,23.856203 0.514285714,23.1120545 0.514285714,22.1969504 C0.514285714,21.281475 1.25476324,20.5369552 2.16512588,20.5369552 C3.07548853,20.5369552 3.81615071,21.281475 3.81615071,22.1969504 Z M5.68219101,26.1634905 C5.68219101,27.0785946 4.94171348,27.8231144 4.0315355,27.8231144 C3.1209882,27.8231144 2.38032601,27.0785946 2.38032601,26.1634905 C2.38032601,25.2483864 3.1209882,24.5038666 4.0315355,24.5038666 C4.94171348,24.5038666 5.68219101,25.2483864 5.68219101,26.1634905 Z M17.6128166,22.1969504 C17.6128166,23.1120545 16.8723391,23.856203 15.9621611,23.856203 C15.0512445,23.856203 14.310213,23.1120545 14.310213,22.1969504 C14.310213,21.281475 15.0512445,20.5369552 15.9621611,20.5369552 C16.8723391,20.5369552 17.6128166,21.281475 17.6128166,22.1969504 Z M22.2422415,22.1969504 C22.2422415,23.1120545 21.5013946,23.856203 20.5912167,23.856203 C19.6803,23.856203 18.9392685,23.1120545 18.9392685,22.1969504 C18.9392685,21.281475 19.6803,20.5369552 20.5912167,20.5369552 C21.5013946,20.5369552 22.2422415,21.281475 22.2422415,22.1969504 Z M29.8496417,23.8562958 C28.9387251,23.8562958 28.1978782,23.1119617 28.1978782,22.1970432 C28.1978782,21.2815678 28.9387251,20.5368624 29.8496417,20.5368624 C30.7600043,20.5368624 31.5006665,21.2815678 31.5006665,22.1970432 C31.5006665,23.1119617 30.7600043,23.8562958 29.8496417,23.8562958 Z M34.3492337,20.5368995 C35.2595963,20.5368995 35.9998892,21.2816049 35.9998892,22.1968947 C35.9998892,23.1119988 35.2595963,23.856333 34.3492337,23.856333 C33.438871,23.856333 32.6982089,23.1119988 32.6982089,22.1968947 C32.6982089,21.2816049 33.438871,20.5368995 34.3492337,20.5368995 Z M13.3609984,3.58061422 C12.4506357,3.58061422 11.7099735,2.8359088 11.7099735,1.9209903 C11.7099735,1.00588619 12.4506357,0.261552007 13.3609984,0.261552007 C14.271361,0.261552007 15.0120232,1.00588619 15.0120232,1.9209903 C15.0120232,2.8359088 14.271361,3.58061422 13.3609984,3.58061422 Z M32.698135,14.2091494 C32.698135,13.2940453 33.4389818,12.5498968 34.3491598,12.5498968 C35.2595225,12.5498968 36,13.2940453 36,14.2091494 C36,15.1242536 35.2595225,15.8687734 34.3491598,15.8687734 C33.4389818,15.8687734 32.698135,15.1242536 32.698135,14.2091494 Z M13.3609984,32.4915747 C14.271361,32.4915747 15.0120232,33.2362801 15.0120232,34.1511986 C15.0120232,35.0663027 14.271361,35.8110081 13.3609984,35.8110081 C12.4506357,35.8110081 11.7099735,35.0663027 11.7099735,34.1511986 C11.7099735,33.2362801 12.4506357,32.4915747 13.3609984,32.4915747 Z M17.9904232,32.4915747 C18.9007859,32.4915747 19.6410787,33.2362801 19.6410787,34.1511986 C19.6410787,35.0663027 18.9007859,35.8110081 17.9904232,35.8110081 C17.0800606,35.8110081 16.3393984,35.0663027 16.3393984,34.1511986 C16.3393984,33.2362801 17.0800606,32.4915747 17.9904232,32.4915747 Z M22.6194972,32.4915747 C23.5298599,32.4915747 24.2705221,33.2362801 24.2705221,34.1511986 C24.2705221,35.0663027 23.5298599,35.8110081 22.6194972,35.8110081 C21.7091346,35.8110081 20.9688417,35.0663027 20.9688417,34.1511986 C20.9688417,33.2362801 21.7091346,32.4915747 22.6194972,32.4915747 Z M17.9904232,3.58061422 C17.0800606,3.58061422 16.3393984,2.8359088 16.3393984,1.9209903 C16.3393984,1.00588619 17.0800606,0.261552007 17.9904232,0.261552007 C18.9007859,0.261552007 19.6410787,1.00588619 19.6410787,1.9209903 C19.6410787,2.8359088 18.9007859,3.58061422 17.9904232,3.58061422 Z M22.6194972,3.58061422 C21.7091346,3.58061422 20.9688417,2.8359088 20.9688417,1.9209903 C20.9688417,1.00588619 21.7091346,0.261552007 22.6194972,0.261552007 C23.5298599,0.261552007 24.2705221,1.00588619 24.2705221,1.9209903 C24.2705221,2.8359088 23.5298599,3.58061422 22.6194972,3.58061422 Z M6.70321904,28.5247004 C7.61358168,28.5247004 8.35424386,29.2694058 8.35424386,30.1843243 C8.35424386,31.0994285 7.61358168,31.8441339 6.70321904,31.8441339 C5.79267173,31.8441339 5.05182489,31.0994285 5.05182489,30.1843243 C5.05182489,29.2694058 5.79267173,28.5247004 6.70321904,28.5247004 Z M12.9837426,30.1843986 C12.9837426,31.0995027 12.2430804,31.8440225 11.3327178,31.8440225 C10.4218012,31.8440225 9.68076965,31.0995027 9.68076965,30.1843986 C9.68076965,29.2692945 10.4218012,28.5247747 11.3327178,28.5247747 C12.2430804,28.5247747 12.9837426,29.2692945 12.9837426,30.1843986 Z M17.6128166,30.1843986 C17.6128166,31.0995027 16.8723391,31.8440225 15.9621611,31.8440225 C15.0512445,31.8440225 14.310213,31.0995027 14.310213,30.1843986 C14.310213,29.2692945 15.0512445,28.5247747 15.9621611,28.5247747 C16.8723391,28.5247747 17.6128166,29.2692945 17.6128166,30.1843986 Z M22.2422415,30.1843986 C22.2422415,31.0995027 21.5013946,31.8440225 20.5912167,31.8440225 C19.6803,31.8440225 18.9392685,31.0995027 18.9392685,30.1843986 C18.9392685,29.2692945 19.6803,28.5247747 20.5912167,28.5247747 C21.5013946,28.5247747 22.2422415,29.2692945 22.2422415,30.1843986 Z M25.2205677,28.5247004 C26.1309303,28.5247004 26.8712232,29.2694058 26.8712232,30.1843243 C26.8712232,31.0994285 26.1309303,31.8441339 25.2205677,31.8441339 C24.3098357,31.8441339 23.5691735,31.0994285 23.5691735,30.1843243 C23.5691735,29.2694058 24.3098357,28.5247004 25.2205677,28.5247004 Z M29.8496417,28.5247004 C30.7600043,28.5247004 31.5006665,29.2694058 31.5006665,30.1843243 C31.5006665,31.0994285 30.7600043,31.8441339 29.8496417,31.8441339 C28.9387251,31.8441339 28.1978782,31.0994285 28.1978782,30.1843243 C28.1978782,29.2694058 28.9387251,28.5247004 29.8496417,28.5247004 Z" id="Combined-Shape"></path>
                </g>
            </g>
        </g>
    </g>
</svg>